<svg id="SvgjsSvg1018" xmlns="http://www.w3.org/2000/svg" version="1.1" xmlns:xlink="http://www.w3.org/1999/xlink" xmlns:svgjs="http://svgjs.com/svgjs" width="24" height="24" viewBox="0 0 24 24"><title>Fill 1</title><desc>Created with Avocode.</desc><defs id="SvgjsDefs1019"></defs><path id="SvgjsPath1020" d="M1509.05 98.07C1507.77 98.13 1506.8999999999999 98.33 1506.1399999999999 98.63C1505.35 98.94 1504.6799999999998 99.35 1504.0099999999998 100.00999999999999C1503.3499999999997 100.67999999999999 1502.9399999999998 101.35 1502.6299999999997 102.13999999999999C1502.3299999999997 102.89999999999999 1502.1299999999997 103.76999999999998 1502.0699999999997 105.04999999999998C1502.0099999999998 106.32999999999998 1501.9999999999998 106.73999999999998 1501.9999999999998 109.99999999999999C1501.9999999999998 113.24999999999999 1502.0099999999998 113.65999999999998 1502.0699999999997 114.93999999999998C1502.1299999999997 116.21999999999998 1502.3299999999997 117.08999999999999 1502.6299999999997 117.84999999999998C1502.9399999999996 118.63999999999999 1503.3499999999997 119.30999999999997 1504.0099999999998 119.97999999999998C1504.6799999999998 120.64999999999998 1505.3499999999997 121.05999999999997 1506.1399999999999 121.35999999999997C1506.8999999999999 121.65999999999997 1507.77 121.85999999999997 1509.05 121.91999999999997C1510.33 121.97999999999998 1510.74 121.98999999999997 1514 121.98999999999997C1517.25 121.98999999999997 1517.66 121.97999999999996 1518.94 121.91999999999997C1520.22 121.85999999999997 1521.0900000000001 121.65999999999997 1521.8500000000001 121.35999999999997C1522.64 121.05999999999997 1523.3100000000002 120.64999999999998 1523.9800000000002 119.97999999999998C1524.6500000000003 119.30999999999997 1525.0600000000002 118.63999999999997 1525.3600000000004 117.84999999999998C1525.6600000000003 117.08999999999997 1525.8600000000004 116.21999999999998 1525.9200000000003 114.93999999999998C1525.9800000000002 113.65999999999998 1525.9900000000002 113.24999999999999 1525.9900000000002 109.99999999999999C1525.9900000000002 106.73999999999998 1525.9800000000002 106.32999999999998 1525.9200000000003 105.04999999999998C1525.8600000000004 103.76999999999998 1525.6600000000003 102.89999999999998 1525.3600000000004 102.13999999999999C1525.0600000000004 101.34999999999998 1524.6500000000003 100.67999999999999 1523.9800000000002 100.00999999999999C1523.3100000000002 99.35 1522.6400000000003 98.94 1521.8500000000001 98.63C1521.0900000000001 98.33 1520.22 98.13 1518.94 98.07C1517.66 98.00999999999999 1517.25 98 1514 98C1510.74 98 1510.33 98.01 1509.05 98.07ZM1518.84 100.23C1520.01 100.28 1520.6499999999999 100.48 1521.07 100.64C1521.6299999999999 100.86 1522.03 101.12 1522.45 101.54C1522.8700000000001 101.96000000000001 1523.13 102.36 1523.3500000000001 102.92C1523.5100000000002 103.34 1523.71 103.98 1523.7600000000002 105.15C1523.8200000000002 106.41000000000001 1523.8300000000002 106.79 1523.8300000000002 110C1523.8300000000002 113.2 1523.8200000000002 113.58 1523.7600000000002 114.84C1523.7100000000003 116.01 1523.5100000000002 116.65 1523.3500000000001 117.07000000000001C1523.13 117.63000000000001 1522.8700000000001 118.03 1522.45 118.45C1522.03 118.87 1521.63 119.13000000000001 1521.07 119.35000000000001C1520.6499999999999 119.51 1520.01 119.71000000000001 1518.84 119.76C1517.58 119.82000000000001 1517.1999999999998 119.83 1514 119.83C1510.79 119.83 1510.41 119.82 1509.15 119.76C1507.98 119.71000000000001 1507.3400000000001 119.51 1506.92 119.35000000000001C1506.3600000000001 119.13000000000001 1505.96 118.87 1505.54 118.45C1505.12 118.03 1504.86 117.63000000000001 1504.6399999999999 117.07000000000001C1504.4799999999998 116.65 1504.28 116.01 1504.2299999999998 114.84C1504.1699999999998 113.58 1504.1599999999999 113.2 1504.1599999999999 110C1504.1599999999999 106.79 1504.1699999999998 106.41 1504.2299999999998 105.15C1504.2799999999997 103.98 1504.4799999999998 103.34 1504.6399999999999 102.92C1504.86 102.36 1505.12 101.96000000000001 1505.54 101.54C1505.96 101.12 1506.36 100.86 1506.92 100.64C1507.3400000000001 100.48 1507.98 100.28 1509.15 100.23C1510.41 100.17 1510.7900000000002 100.16000000000001 1514 100.16000000000001C1517.2 100.16000000000001 1517.58 100.17000000000002 1518.84 100.23Z " fill="#ffffff" fill-opacity="1" transform="matrix(1,0,0,1,-1502,-98)"></path><path id="SvgjsPath1021" d="M1510.16 110.16C1510.16 107.95 1511.95 106.16 1514.16 106.16C1516.3700000000001 106.16 1518.16 107.95 1518.16 110.16C1518.16 112.36999999999999 1516.3700000000001 114.16 1514.16 114.16C1511.95 114.16 1510.16 112.36999999999999 1510.16 110.16ZM1508 110.16C1508 113.56 1510.76 116.32 1514.16 116.32C1517.5600000000002 116.32 1520.3200000000002 113.55999999999999 1520.3200000000002 110.16C1520.3200000000002 106.75999999999999 1517.5600000000002 104 1514.16 104C1510.76 104 1508 106.76 1508 110.16Z " fill="#ffffff" fill-opacity="1" transform="matrix(1,0,0,1,-1502,-98)"></path><path id="SvgjsPath1022" d="M1521.88 103.44C1521.88 104.23 1521.23 104.88 1520.44 104.88C1519.64 104.88 1519 104.22999999999999 1519 103.44C1519 102.64 1519.64 102 1520.44 102C1521.23 102 1521.88 102.64 1521.88 103.44 " fill="#ffffff" fill-opacity="1" transform="matrix(1,0,0,1,-1502,-98)"></path></svg>