<svg id="SvgjsSvg1023" xmlns="http://www.w3.org/2000/svg" version="1.1" xmlns:xlink="http://www.w3.org/1999/xlink" xmlns:svgjs="http://svgjs.com/svgjs" width="24" height="24" viewBox="0 0 24 24"><title>Facebook</title><desc>Created with Avocode.</desc><defs id="SvgjsDefs1024"></defs><path id="SvgjsPath1025" d="M1568.82 122L1557.32 122C1556.59 122 1556 121.41 1556 120.68L1556 99.32000000000001C1556 98.59 1556.59 98.00000000000001 1557.32 98.00000000000001L1578.6799999999998 98.00000000000001C1579.4099999999999 98.00000000000001 1579.9999999999998 98.59000000000002 1579.9999999999998 99.32000000000001L1579.9999999999998 120.68C1579.9999999999998 121.41000000000001 1579.4099999999999 122 1578.6799999999998 122L1572.56 122L1572.56 112.71000000000001L1575.6799999999998 112.71000000000001L1576.1499999999999 109.08000000000001L1572.56 109.08000000000001L1572.56 106.77000000000001C1572.56 105.72000000000001 1572.85 105.01 1574.35 105.01L1576.27 105.01L1576.27 101.77000000000001C1575.94 101.72000000000001 1574.8 101.62 1573.48 101.62C1570.71 101.62 1568.82 103.31 1568.82 106.41000000000001L1568.82 109.08000000000001L1565.6899999999998 109.08000000000001L1565.6899999999998 112.71000000000001L1568.82 112.71000000000001Z " fill="#ffffff" fill-opacity="1" transform="matrix(1,0,0,1,-1556,-98)"></path></svg>