<svg id="SvgjsSvg1015" xmlns="http://www.w3.org/2000/svg" version="1.1" xmlns:xlink="http://www.w3.org/1999/xlink" xmlns:svgjs="http://svgjs.com/svgjs" width="24" height="19" viewBox="0 0 24 19"><title>Fill 1</title><desc>Created with Avocode.</desc><defs id="SvgjsDefs1016"></defs><path id="SvgjsPath1017" d="M1471.32 102.24C1470.47 102.61999999999999 1469.54 102.88 1468.57 103C1469.56 102.4 1470.32 101.47 1470.6799999999998 100.35C1469.7499999999998 100.89999999999999 1468.7299999999998 101.3 1467.6299999999999 101.50999999999999C1466.77 100.57999999999998 1465.52 99.99999999999999 1464.1499999999999 99.99999999999999C1461.5099999999998 99.99999999999999 1459.36 102.13999999999999 1459.36 104.77999999999999C1459.36 105.15999999999998 1459.4099999999999 105.51999999999998 1459.49 105.86999999999999C1455.51 105.66999999999999 1451.99 103.77 1449.6200000000001 100.86999999999999C1449.21 101.57999999999998 1448.97 102.39999999999999 1448.97 103.27999999999999C1448.97 104.93999999999998 1449.82 106.40999999999998 1451.1000000000001 107.25999999999999C1450.3200000000002 107.24 1449.5900000000001 107.02 1448.94 106.66L1448.94 106.72C1448.94 109.03999999999999 1450.5900000000001 110.97 1452.78 111.42C1452.3799999999999 111.52 1451.95 111.58 1451.52 111.58C1451.21 111.58 1450.91 111.55 1450.61 111.49C1451.2199999999998 113.39 1452.99 114.77 1455.08 114.82C1453.4399999999998 116.1 1451.3799999999999 116.86 1449.1399999999999 116.86C1448.7499999999998 116.86 1448.3799999999999 116.84 1447.9999999999998 116.8C1450.1199999999997 118.14999999999999 1452.6299999999999 118.94 1455.3399999999997 118.94C1464.1299999999997 118.94 1468.9399999999996 111.66 1468.9399999999996 105.34L1468.9299999999996 104.72C1469.8699999999997 104.03999999999999 1470.6799999999996 103.2 1471.3199999999997 102.24 " fill="#ffffff" fill-opacity="1" transform="matrix(1,0,0,1,-1448,-100)"></path></svg>