<svg id="SvgjsSvg1000" xmlns="http://www.w3.org/2000/svg" version="1.1" xmlns:xlink="http://www.w3.org/1999/xlink" xmlns:svgjs="http://svgjs.com/svgjs" width="160" height="60" viewBox="0 0 160 60"><title>Page 1</title><desc>Created with Avocode.</desc><defs id="SvgjsDefs1001"></defs><path id="SvgjsPath1007" d="M342.53 128C341.64 128.96 340.78 129.85 340 130.65L376.67 130.65L377.38 128Z " fill="#fefefe" fill-opacity="1" transform="matrix(1,0,0,1,-220,-80)"></path><path id="SvgjsPath1008" d="M329.23 128L281.71000000000004 128L281.00000000000006 130.65L330.38000000000005 130.65C330.02000000000004 129.87 329.63000000000005 128.98000000000002 329.2300000000001 128 " fill="#fefefe" fill-opacity="1" transform="matrix(1,0,0,1,-220,-80)"></path><path id="SvgjsPath1009" d="M228.17 103.04L220 103.04L221.38 97.89C221.81 96.29 223.45 95 225.04 95L247.67 95L246.29 100.15C245.85999999999999 101.74000000000001 244.22 103.04 242.63 103.04L237.39 103.04L232.16 122.57000000000001C231.73 124.16000000000001 230.09 125.46000000000001 228.5 125.46000000000001L222.17 125.46000000000001Z " fill="#fefefe" fill-opacity="1" transform="matrix(1,0,0,1,-220,-80)"></path><path id="SvgjsPath1010" d="M259.11 103.04C257.52000000000004 103.04 255.88000000000002 104.33000000000001 255.45000000000002 105.93L254.94000000000003 107.83000000000001L260.55 107.83000000000001C262.11 107.83000000000001 263.76 107.10000000000001 264.22 105.41000000000001C264.66 103.77000000000001 263.39000000000004 103.04 261.84000000000003 103.04ZM256.12 115.87L252.79 115.87L250.98999999999998 122.57000000000001C250.57 124.16000000000001 248.92999999999998 125.46000000000001 247.32999999999998 125.46000000000001L240.99999999999997 125.46000000000001L248.37999999999997 97.89000000000001C248.80999999999997 96.29000000000002 250.44999999999996 95.00000000000001 252.04999999999995 95.00000000000001L265.40999999999997 95.00000000000001C272.53 95.00000000000001 275.09 99.75000000000001 273.55999999999995 105.46000000000001C272.1499999999999 110.71000000000001 268.34999999999997 113.49000000000001 265.60999999999996 114.68L268.24999999999994 125.46000000000001L257.74999999999994 125.46000000000001Z " fill="#fefefe" fill-opacity="1" transform="matrix(1,0,0,1,-220,-80)"></path><path id="SvgjsPath1011" d="M283.22 109.47L276.51000000000005 134.53L266.00000000000006 139.34L277.25000000000006 97.33000000000001C277.68000000000006 95.74000000000001 279.32000000000005 94.44000000000001 280.9100000000001 94.44000000000001L287.5200000000001 94.44000000000001L294.2400000000001 108.87L300.6900000000001 84.81L311.2000000000001 80L299.9400000000001 122.00999999999999C299.5200000000001 123.60999999999999 297.8800000000001 124.89999999999999 296.2800000000001 124.89999999999999L290.3200000000001 124.89999999999999Z " fill="#fefefe" fill-opacity="1" transform="matrix(1,0,0,1,-220,-80)"></path><path id="SvgjsPath1012" d="M340.66 111.15C337.73 111.15 335.99 108.77000000000001 336.78000000000003 105.84C337.56 102.92 340.57000000000005 100.54 343.50000000000006 100.54C346.4200000000001 100.54 348.1600000000001 102.92 347.38000000000005 105.84C346.59000000000003 108.77000000000001 343.58000000000004 111.15 340.66 111.15ZM328.6 105.84C325.62 116.98 334.69 133.41 334.69 133.41C334.69 133.41 352.57 116.97999999999999 355.55 105.84C357.75 97.64 353.5 91 346.05 91C338.6 91 330.8 97.64 328.6 105.84Z " fill="#fefefe" fill-opacity="1" transform="matrix(1,0,0,1,-220,-80)"></path><path id="SvgjsPath1013" d="M326.22 117.39L313.37 117.39L313.49 116.92C313.92 115.33 315.56 114.02 317.15000000000003 114.02L325.72 114.02C325.44000000000005 111.36999999999999 325.48 108.47999999999999 326.06 106.07L316.42 106.07L316.45 105.88999999999999C316.88 104.29999999999998 318.52 102.93999999999998 320.11 102.93999999999998L326.99 102.93999999999998C328.16 100.05999999999999 329.97 97.16999999999999 332.29 94.99999999999999L313.04 94.99999999999999C311.45000000000005 94.99999999999999 309.81 96.22999999999999 309.38 97.82999999999998L302 125.32999999999998L322.21 125.32999999999998C323.79999999999995 125.32999999999998 325.44 124.06999999999998 325.87 122.46999999999998L326.68 119.47999999999999C326.51 118.77999999999999 326.35 118.10999999999999 326.22 117.38999999999999 " fill="#fefefe" fill-opacity="1" transform="matrix(1,0,0,1,-220,-80)"></path><path id="SvgjsPath1014" d="M366.56 107.76L360.94 107.76L361.45 105.84C361.88 104.25 363.52 102.94 365.11 102.94L367.84000000000003 102.94C369.39000000000004 102.94 370.66 103.67999999999999 370.22 105.33C369.76000000000005 107.02 368.11 107.76 366.56 107.76ZM356.2 95C357.94 98.13 358.3 102.32 357.15999999999997 106.57C355.84999999999997 111.47 351.96999999999997 117.14999999999999 347.84999999999997 122.19999999999999L346.99999999999994 125.32999999999998L353.3299999999999 125.32999999999998C354.92999999999995 125.32999999999998 356.56999999999994 124.01999999999998 356.98999999999995 122.41999999999999L358.78999999999996 115.69999999999999L362.11999999999995 115.69999999999999L363.74999999999994 125.32999999999998L374.24999999999994 125.32999999999998L371.60999999999996 114.57999999999998C374.34999999999997 113.39999999999998 378.15 110.65999999999998 379.55999999999995 105.40999999999998C381.0899999999999 99.69999999999999 378.53 94.99999999999999 371.40999999999997 94.99999999999999Z " fill="#fefefe" fill-opacity="1" transform="matrix(1,0,0,1,-220,-80)"></path></svg>